<svg width="512" height="172" viewBox="0 0 512 172" fill="none" xmlns="http://www.w3.org/2000/svg">
<rect width="512" height="172" fill="#A2ABB5"/>
<g clip-path="url(#clip0_139_170)">
<path d="M512 0H0V172H512V0Z" fill="#CED4DA"/>
<path d="M512 0H0V172H512V0Z" fill="#35341F"/>
<path d="M241.902 91.648C238.878 91.648 235.98 91.252 233.208 90.46C230.436 89.632 228.204 88.57 226.512 87.274L229.482 80.686C231.102 81.838 233.01 82.792 235.206 83.548C237.438 84.268 239.688 84.628 241.956 84.628C243.684 84.628 245.07 84.466 246.114 84.142C247.194 83.782 247.986 83.296 248.49 82.684C248.994 82.072 249.246 81.37 249.246 80.578C249.246 79.57 248.85 78.778 248.058 78.202C247.266 77.59 246.222 77.104 244.926 76.744C243.63 76.348 242.19 75.988 240.606 75.664C239.058 75.304 237.492 74.872 235.908 74.368C234.36 73.864 232.938 73.216 231.642 72.424C230.346 71.632 229.284 70.588 228.456 69.292C227.664 67.996 227.268 66.34 227.268 64.324C227.268 62.164 227.844 60.202 228.996 58.438C230.184 56.638 231.948 55.216 234.288 54.172C236.664 53.092 239.634 52.552 243.198 52.552C245.574 52.552 247.914 52.84 250.218 53.416C252.522 53.956 254.556 54.784 256.32 55.9L253.62 62.542C251.856 61.534 250.092 60.796 248.328 60.328C246.564 59.824 244.836 59.572 243.144 59.572C241.452 59.572 240.066 59.77 238.986 60.166C237.906 60.562 237.132 61.084 236.664 61.732C236.196 62.344 235.962 63.064 235.962 63.892C235.962 64.864 236.358 65.656 237.15 66.268C237.942 66.844 238.986 67.312 240.282 67.672C241.578 68.032 243 68.392 244.548 68.752C246.132 69.112 247.698 69.526 249.246 69.994C250.83 70.462 252.27 71.092 253.566 71.884C254.862 72.676 255.906 73.72 256.698 75.016C257.526 76.312 257.94 77.95 257.94 79.93C257.94 82.054 257.346 83.998 256.158 85.762C254.97 87.526 253.188 88.948 250.812 90.028C248.472 91.108 245.502 91.648 241.902 91.648ZM282.602 61.516C284.906 61.516 286.958 61.984 288.758 62.92C290.594 63.82 292.034 65.224 293.078 67.132C294.122 69.004 294.644 71.416 294.644 74.368V91H286.22V75.664C286.22 73.324 285.698 71.596 284.654 70.48C283.646 69.364 282.206 68.806 280.334 68.806C279.002 68.806 277.796 69.094 276.716 69.67C275.672 70.21 274.844 71.056 274.232 72.208C273.656 73.36 273.368 74.836 273.368 76.636V91H264.944V50.932H273.368V69.994L271.478 67.564C272.522 65.62 274.016 64.126 275.96 63.082C277.904 62.038 280.118 61.516 282.602 61.516ZM303.899 91V61.948H311.945V70.156L310.811 67.78C311.675 65.728 313.061 64.18 314.969 63.136C316.877 62.056 319.199 61.516 321.935 61.516V69.292C321.575 69.256 321.251 69.238 320.963 69.238C320.675 69.202 320.369 69.184 320.045 69.184C317.741 69.184 315.869 69.85 314.429 71.182C313.025 72.478 312.323 74.512 312.323 77.284V91H303.899ZM344.486 91V85.33L343.946 84.088V73.936C343.946 72.136 343.388 70.732 342.272 69.724C341.192 68.716 339.518 68.212 337.25 68.212C335.702 68.212 334.172 68.464 332.66 68.968C331.184 69.436 329.924 70.084 328.88 70.912L325.856 65.026C327.44 63.91 329.348 63.046 331.58 62.434C333.812 61.822 336.08 61.516 338.384 61.516C342.812 61.516 346.25 62.56 348.698 64.648C351.146 66.736 352.37 69.994 352.37 74.422V91H344.486ZM335.63 91.432C333.362 91.432 331.418 91.054 329.798 90.298C328.178 89.506 326.936 88.444 326.072 87.112C325.208 85.78 324.776 84.286 324.776 82.63C324.776 80.902 325.19 79.39 326.018 78.094C326.882 76.798 328.232 75.79 330.068 75.07C331.904 74.314 334.298 73.936 337.25 73.936H344.972V78.85H338.168C336.188 78.85 334.82 79.174 334.064 79.822C333.344 80.47 332.984 81.28 332.984 82.252C332.984 83.332 333.398 84.196 334.226 84.844C335.09 85.456 336.26 85.762 337.736 85.762C339.14 85.762 340.4 85.438 341.516 84.79C342.632 84.106 343.442 83.116 343.946 81.82L345.242 85.708C344.63 87.58 343.514 89.002 341.894 89.974C340.274 90.946 338.186 91.432 335.63 91.432ZM398.82 61.516C401.124 61.516 403.158 61.984 404.922 62.92C406.722 63.82 408.126 65.224 409.134 67.132C410.178 69.004 410.7 71.416 410.7 74.368V91H402.276V75.664C402.276 73.324 401.79 71.596 400.818 70.48C399.846 69.364 398.478 68.806 396.714 68.806C395.49 68.806 394.392 69.094 393.42 69.67C392.448 70.21 391.692 71.038 391.152 72.154C390.612 73.27 390.342 74.692 390.342 76.42V91H381.918V75.664C381.918 73.324 381.432 71.596 380.46 70.48C379.524 69.364 378.174 68.806 376.41 68.806C375.186 68.806 374.088 69.094 373.116 69.67C372.144 70.21 371.388 71.038 370.848 72.154C370.308 73.27 370.038 74.692 370.038 76.42V91H361.614V61.948H369.66V69.886L368.148 67.564C369.156 65.584 370.578 64.09 372.414 63.082C374.286 62.038 376.41 61.516 378.786 61.516C381.45 61.516 383.772 62.2 385.752 63.568C387.768 64.9 389.1 66.952 389.748 69.724L386.778 68.914C387.75 66.646 389.298 64.846 391.422 63.514C393.582 62.182 396.048 61.516 398.82 61.516ZM419.871 91V61.948H428.295V91H419.871ZM424.083 57.898C422.535 57.898 421.275 57.448 420.303 56.548C419.331 55.648 418.845 54.532 418.845 53.2C418.845 51.868 419.331 50.752 420.303 49.852C421.275 48.952 422.535 48.502 424.083 48.502C425.631 48.502 426.891 48.934 427.863 49.798C428.835 50.626 429.321 51.706 429.321 53.038C429.321 54.442 428.835 55.612 427.863 56.548C426.927 57.448 425.667 57.898 424.083 57.898ZM444.699 85.06L444.915 74.8L458.469 61.948H468.513L455.499 75.178L451.125 78.742L444.699 85.06ZM437.733 91V50.932H446.157V91H437.733ZM459.387 91L449.559 78.796L454.851 72.262L469.593 91H459.387Z" fill="#EFB92A"/>
<path d="M226.482 139V101.2H244.95C249.702 101.2 253.266 102.1 255.642 103.9C258.054 105.7 259.26 108.076 259.26 111.028C259.26 113.008 258.774 114.736 257.802 116.212C256.83 117.652 255.498 118.768 253.806 119.56C252.114 120.352 250.17 120.748 247.974 120.748L249 118.534C251.376 118.534 253.482 118.93 255.318 119.722C257.154 120.478 258.576 121.612 259.584 123.124C260.628 124.636 261.15 126.49 261.15 128.686C261.15 131.926 259.872 134.464 257.316 136.3C254.76 138.1 250.998 139 246.03 139H226.482ZM235.176 132.412H245.382C247.65 132.412 249.36 132.052 250.512 131.332C251.7 130.576 252.294 129.388 252.294 127.768C252.294 126.184 251.7 125.014 250.512 124.258C249.36 123.466 247.65 123.07 245.382 123.07H234.528V116.698H243.87C245.994 116.698 247.614 116.338 248.73 115.618C249.882 114.862 250.458 113.728 250.458 112.216C250.458 110.74 249.882 109.642 248.73 108.922C247.614 108.166 245.994 107.788 243.87 107.788H235.176V132.412ZM286.457 109.516C288.761 109.516 290.813 109.984 292.613 110.92C294.449 111.82 295.889 113.224 296.933 115.132C297.977 117.004 298.499 119.416 298.499 122.368V139H290.075V123.664C290.075 121.324 289.553 119.596 288.509 118.48C287.501 117.364 286.061 116.806 284.189 116.806C282.857 116.806 281.651 117.094 280.571 117.67C279.527 118.21 278.699 119.056 278.087 120.208C277.511 121.36 277.223 122.836 277.223 124.636V139H268.799V98.932H277.223V117.994L275.333 115.564C276.377 113.62 277.871 112.126 279.815 111.082C281.759 110.038 283.973 109.516 286.457 109.516ZM325.575 139V133.33L325.035 132.088V121.936C325.035 120.136 324.477 118.732 323.361 117.724C322.281 116.716 320.607 116.212 318.339 116.212C316.791 116.212 315.261 116.464 313.749 116.968C312.273 117.436 311.013 118.084 309.969 118.912L306.945 113.026C308.529 111.91 310.437 111.046 312.669 110.434C314.901 109.822 317.169 109.516 319.473 109.516C323.901 109.516 327.339 110.56 329.787 112.648C332.235 114.736 333.459 117.994 333.459 122.422V139H325.575ZM316.719 139.432C314.451 139.432 312.507 139.054 310.887 138.298C309.267 137.506 308.025 136.444 307.161 135.112C306.297 133.78 305.865 132.286 305.865 130.63C305.865 128.902 306.279 127.39 307.107 126.094C307.971 124.798 309.321 123.79 311.157 123.07C312.993 122.314 315.387 121.936 318.339 121.936H326.061V126.85H319.257C317.277 126.85 315.909 127.174 315.153 127.822C314.433 128.47 314.073 129.28 314.073 130.252C314.073 131.332 314.487 132.196 315.315 132.844C316.179 133.456 317.349 133.762 318.825 133.762C320.229 133.762 321.489 133.438 322.605 132.79C323.721 132.106 324.531 131.116 325.035 129.82L326.331 133.708C325.719 135.58 324.603 137.002 322.983 137.974C321.363 138.946 319.275 139.432 316.719 139.432ZM342.703 139V109.948H350.749V118.156L349.615 115.78C350.479 113.728 351.865 112.18 353.773 111.136C355.681 110.056 358.003 109.516 360.739 109.516V117.292C360.379 117.256 360.055 117.238 359.767 117.238C359.479 117.202 359.173 117.184 358.849 117.184C356.545 117.184 354.673 117.85 353.233 119.182C351.829 120.478 351.127 122.512 351.127 125.284V139H342.703ZM383.29 139V133.33L382.75 132.088V121.936C382.75 120.136 382.192 118.732 381.076 117.724C379.996 116.716 378.322 116.212 376.054 116.212C374.506 116.212 372.976 116.464 371.464 116.968C369.988 117.436 368.728 118.084 367.684 118.912L364.66 113.026C366.244 111.91 368.152 111.046 370.384 110.434C372.616 109.822 374.884 109.516 377.188 109.516C381.616 109.516 385.054 110.56 387.502 112.648C389.95 114.736 391.174 117.994 391.174 122.422V139H383.29ZM374.434 139.432C372.166 139.432 370.222 139.054 368.602 138.298C366.982 137.506 365.74 136.444 364.876 135.112C364.012 133.78 363.58 132.286 363.58 130.63C363.58 128.902 363.994 127.39 364.822 126.094C365.686 124.798 367.036 123.79 368.872 123.07C370.708 122.314 373.102 121.936 376.054 121.936H383.776V126.85H376.972C374.992 126.85 373.624 127.174 372.868 127.822C372.148 128.47 371.788 129.28 371.788 130.252C371.788 131.332 372.202 132.196 373.03 132.844C373.894 133.456 375.064 133.762 376.54 133.762C377.944 133.762 379.204 133.438 380.32 132.79C381.436 132.106 382.246 131.116 382.75 129.82L384.046 133.708C383.434 135.58 382.318 137.002 380.698 137.974C379.078 138.946 376.99 139.432 374.434 139.432ZM412.298 139.432C408.878 139.432 406.214 138.568 404.306 136.84C402.398 135.076 401.444 132.466 401.444 129.01V103.522H409.868V128.902C409.868 130.126 410.192 131.08 410.84 131.764C411.488 132.412 412.37 132.736 413.486 132.736C414.818 132.736 415.952 132.376 416.888 131.656L419.156 137.596C418.292 138.208 417.248 138.676 416.024 139C414.836 139.288 413.594 139.432 412.298 139.432ZM396.962 117.076V110.596H417.104V117.076H396.962Z" fill="#EFB92A"/>
<mask id="mask0_139_170" style="mask-type:luminance" maskUnits="userSpaceOnUse" x="43" y="33" width="170" height="104">
<path d="M213 33H43V136.169H213V33Z" fill="white"/>
</mask>
<g mask="url(#mask0_139_170)">
<mask id="mask1_139_170" style="mask-type:luminance" maskUnits="userSpaceOnUse" x="43" y="33" width="170" height="104">
<path d="M213 33H43V136.169H213V33Z" fill="white"/>
</mask>
<g mask="url(#mask1_139_170)">
<path fill-rule="evenodd" clip-rule="evenodd" d="M113.55 50.2125C113.869 45.8562 114.825 42.2437 117.587 39.6937L119.5 42.0312L118.119 38.525C118.119 38.525 119.394 37.3562 121.731 36.5062L124.175 47.1312L123.006 34.0625C123.006 34.0625 125.025 33 128.106 33H128.319C131.294 33.1062 133.419 34.0625 133.419 34.0625L132.25 47.1312L134.694 36.5062C137.031 37.3562 138.306 38.525 138.306 38.525L136.925 42.0312L138.838 39.6937C141.6 42.2437 142.45 45.8562 142.769 50.2125L136.5 51.275H143.406L144.681 51.8062C145 51.9125 145.106 52.2312 145.106 52.55V54.3562C145.106 54.7812 144.788 55.1 144.363 55.1H141.813V55.525C141.706 55.6312 141.494 56.9062 142.025 56.8C142.45 56.6937 142.981 56.6937 143.406 56.9062C143.831 57.1187 144.15 57.5437 144.256 57.9687C144.788 60.1999 143.406 62.6437 141.706 63.7062C141.281 63.9187 140.856 64.1312 140.431 64.0249C140.113 66.1499 139.794 68.1687 138.731 69.9749C137.244 72.5249 135.225 74.7562 132.994 76.4562C132.463 76.8812 131.613 76.9874 130.869 77.0937C130.55 77.0937 130.231 77.1999 130.019 77.1999C130.125 77.7312 130.125 78.4749 130.231 78.8999C130.338 79.9624 129.381 81.0249 129.169 81.7687V82.7249C131.931 81.7687 134.588 78.7937 134.588 78.7937C132.781 81.8749 131.188 84.4249 130.125 86.0187C133.844 83.3624 137.244 76.0312 137.244 76.0312C137.244 75.3937 137.244 74.3312 137.138 73.3749C137.456 73.7999 137.775 74.3312 138.094 74.9687H138.413C138.413 74.9687 139.263 75.3937 139.688 76.2437C140.113 77.1999 140.963 78.4749 141.706 79.6437C143.088 81.7687 142.875 81.0249 143.406 81.4499C143.619 81.6624 143.938 82.0874 144.044 82.2999C144.15 82.1937 144.256 82.0874 144.575 82.0874C145.531 82.0874 148.613 82.9374 148.613 82.9374L149.038 84.2124C149.144 86.6561 149.463 99.0874 149.463 100.787C149.463 100.787 150.419 94.7311 150.525 91.3311C150.631 89.3124 150.525 86.5499 150.525 84.7437L154.031 85.9124C154.031 85.9124 156.9 88.0374 157.644 88.4624C158.175 88.7811 159.45 89.4186 160.725 90.9061C161.15 91.4374 159.981 92.3936 160.088 92.7124C160.3 93.2436 161.256 93.9874 161.362 94.6249C166.144 108.012 164.975 128.837 163.806 127.775C164.019 132.025 162.213 136.062 157.538 135.956L149.569 136.169H106.644L98.675 135.956C94 136.062 92.1938 132.131 92.4063 127.775C91.3438 128.837 90.175 108.012 94.85 94.6249C95.0625 94.0936 95.9125 93.2436 96.125 92.7124C96.2313 92.3936 95.0625 91.4374 95.4875 90.9061C96.7625 89.4186 98.0375 88.7811 98.5688 88.4624C99.3125 88.0374 102.181 85.9124 102.181 85.9124L107.175 84.2124L107.6 82.8312C107.6 82.8312 110.681 81.9812 111.637 81.9812C111.85 81.9812 112.062 82.0874 112.169 82.1937C112.169 82.0874 112.275 82.0874 112.275 81.9812C112.169 82.1937 112.169 82.2999 112.169 82.2999C112.169 82.2999 112.912 89.7374 112.806 91.6499C112.806 91.6499 114.188 86.1249 113.656 82.0874C113.55 81.5562 113.55 81.2374 113.444 81.0249C113.656 80.8124 113.975 80.4937 114.506 79.5374C115.25 78.3687 115.994 77.1999 116.525 76.1374C116.95 75.2874 117.8 74.8624 117.8 74.8624H118.012C118.119 73.6937 118.225 72.3124 118.331 71.2499L118.119 71.0374C116.95 69.4437 116.312 67.5312 115.887 65.4062V65.2999C115.887 65.2999 115.781 64.7687 115.675 64.0249V63.9187C115.463 62.9624 115.356 61.6874 115.25 60.6249C115.25 60.6249 115.037 61.8999 114.931 63.9187C114.294 63.7062 113.762 63.1749 113.337 62.7499C112.062 61.2624 111.319 59.1375 111.956 57.3312C112.063 57.0125 112.381 56.6937 112.806 56.5874C113.125 56.4812 113.55 56.4812 113.975 56.5874C113.975 56.5874 114.081 56.5875 114.081 56.6937C115.144 57.0125 114.4 55.525 114.294 55.525V55.1H111.956C111.531 55.1 111.212 54.7812 111.212 54.3562V52.55C111.212 52.2312 111.425 51.9125 111.637 51.8062L112.913 51.275H119.5L113.55 50.2125ZM112.7 119.7C112.7 119.7 117.694 119.7 118.225 119.912C118.756 120.125 123.75 122.675 126.406 125.012C126.406 125.012 108.769 131.6 103.669 131.919C103.669 131.919 107.706 123.631 109.406 121.825L107.6 128.412C107.494 128.306 111.744 121.825 112.7 119.7ZM144.363 122.569C144.044 121.825 144.044 121.4 143.725 120.55C142.45 117.044 142.238 115.237 142.238 115.237C138.094 112.369 115.781 107.481 113.656 107.8C111.531 108.012 108.662 110.137 108.556 111.731C108.344 114.175 107.6 117.681 109.406 116.937C110.575 116.406 114.081 116.619 116.313 116.725C115.463 115.662 114.719 114.919 114.719 114.919C118.225 115.344 121.2 118.425 122.475 118.956C125.556 120.337 137.35 126.819 143.513 128.944C136.288 125.012 124.387 117.256 124.387 117.256C124.387 117.256 135.013 121.612 143.725 124.906C138.413 121.612 133.738 118.637 133.738 118.637C133.738 118.637 140.006 121.187 144.363 122.569ZM96.2313 113.219L96.125 114.812C96.125 114.812 97.4 116.087 96.8687 116.406C96.3375 116.725 95.7 117.044 96.0188 117.894C96.3375 118.744 95.8063 120.869 96.2313 121.4C96.6563 121.931 100.587 118.106 106.325 116.619L106.113 114.812C106.113 114.812 103.562 115.556 101.119 116.725C101.119 116.725 102.606 114.494 105.475 112.9L100.8 113.431L96.2313 113.219ZM149.994 113.112C149.994 113.112 151.694 110.35 151.694 110.031C151.694 108.969 143.619 108.119 143.619 108.119L135.863 110.456C140.219 112.05 146.7 112.794 149.994 113.112ZM99.6313 96.2186C99.6313 96.2186 97.825 100.15 98.1438 102.275C98.4625 104.4 96.55 105.675 96.55 105.675C96.55 105.675 101.969 106.631 104.731 108.225L96.125 108.544L95.9125 110.987L106.325 110.669C106.325 110.669 106.113 103.869 105.581 101.85C105.05 99.6186 102.075 97.8124 99.6313 96.2186ZM133.738 90.2686C133.1 92.6061 132.038 97.1749 132.144 99.9374C132.144 99.9374 134.375 93.8811 136.819 90.6936C138.838 91.5436 141.069 92.9249 141.6 93.1374C142.556 93.5624 143.513 93.4561 143.513 93.4561L143.406 96.2186L142.769 97.0686L142.663 99.4061L143.3 100.256L143.088 104.4C143.088 104.4 131.613 104.719 129.594 104.612C124.706 104.506 117.587 104.187 117.587 104.187C117.587 104.187 124.281 103.231 129.063 102.7V102.487C129.169 101.425 130.763 93.5624 133.738 90.2686ZM122.794 89.0999L124.281 89.6312L126.194 90.1624L126.725 98.5561C126.725 98.5561 125.556 93.1374 124.919 91.8624C124.387 90.6936 122.794 89.0999 122.794 89.0999ZM137.988 77.7312C137.988 77.7312 136.288 83.4687 135.013 84.9562C135.013 84.9562 138.944 86.2312 141.813 90.6936L142.663 85.2749L142.238 83.7874C142.238 83.8937 138.519 77.5187 137.988 77.7312ZM117.587 76.8812C117.587 76.8812 119.288 80.8124 119.925 83.6812C120.138 84.8499 118.756 86.4437 118.969 86.9749L121.094 84.6374L126.831 88.2499C126.831 88.2499 123.75 84.2124 122.581 83.2562C122.263 83.0437 120.456 80.1749 120.456 80.1749C120.456 80.1749 119.5 76.7749 117.587 76.8812ZM133.206 54.7812C134.056 54.675 129.062 54.8875 123.431 54.8875C123.112 54.9937 126.3 55.525 126.406 55.7375C126.406 55.7375 127.788 56.1625 127.894 57.0125C128 57.8624 127.894 60.6249 127.575 61.3687C127.256 62.1124 125.45 62.5374 125.556 63.8124C125.556 63.8124 126.194 63.7062 126.831 64.0249C127.363 64.3437 127.256 64.6624 128 64.6624C128.744 64.6624 129.169 63.7062 130.019 64.0249C130.763 64.3437 130.019 65.4062 128.956 65.2999C127.894 65.0874 128.425 65.8312 127.363 65.8312C125.238 65.9374 123.963 67.8499 126.938 67.2124C127.15 67.2124 127.575 66.8937 127.894 66.8937C128.213 66.8937 128.531 67.2124 128.744 67.2124C129.169 67.2124 130.019 67.4249 130.656 67.4249C131.188 67.4249 131.613 67.5312 131.825 67.5312C131.825 67.5312 131.719 67.3187 131.931 67.3187C132.038 67.2124 132.781 67.3187 133.1 67.9562C133.206 68.1687 133.206 68.5937 132.888 69.2312C132.888 69.3374 132.781 69.0187 132.569 68.5937C132.038 68.8062 131.188 68.9124 130.656 68.9124C129.275 68.9124 128.638 69.0187 128 69.0187C127.363 69.0187 125.769 68.6999 125.45 69.6562C125.131 70.6124 126.938 69.6562 127.788 69.6562C128.638 69.7624 129.381 70.7187 129.169 71.5687C129.169 71.5687 125.344 71.2499 124.387 72.2062C123.537 73.1624 124.6 75.4999 128 74.2249C128 74.2249 129.594 75.1812 132.569 74.2249C134.375 72.5249 134.056 72.5249 135.225 70.5062C135.65 69.7624 137.35 68.0624 137.563 67.2124C137.775 66.3624 138.094 65.4062 138.2 64.4499V62.6437C138.306 60.9437 138.306 57.65 137.988 57.4375C137.456 57.0125 137.031 56.4812 136.606 55.95H135.225C135.225 55.95 136.5 56.2687 137.138 57.4375C135.65 57.8625 135.438 59.0312 133.631 59.1374C131.719 59.1374 131.081 57.1187 130.338 57.0125C130.338 56.9062 131.825 54.7812 133.206 54.7812ZM122.262 59.1374C122.687 59.0312 124.175 59.1374 124.494 59.7749C124.812 60.4124 123.431 63.0687 122.581 63.0687C121.944 63.0687 121.2 62.0062 120.563 61.0499C119.925 60.0937 120.031 59.5624 122.262 59.1374Z" fill="#EBE3E3"/>
<path fill-rule="evenodd" clip-rule="evenodd" d="M149.994 80.4936C152.65 78.1561 155.625 75.4999 159.237 71.8874C164.125 66.9999 166.25 63.5999 166.25 63.5999C165.931 63.2812 165.931 62.6437 166.25 62.3249C166.781 61.6874 167.631 60.8374 167.737 60.5187C169.65 56.9062 167.419 53.9312 163.594 52.3374C160.937 51.1687 157.113 50.1062 151.8 49.1499C151.588 49.1499 151.269 48.8312 150.95 48.6187C150.844 48.5124 150.737 48.2999 150.844 48.0874C150.95 47.8749 151.056 47.7687 151.269 47.7687C154.988 47.0249 163.169 45.3249 175.069 50.6374C179.319 52.5499 184.419 57.4374 184.737 59.7749C184.844 60.6249 184.737 61.2624 184.525 61.7937C184.525 61.7937 183.994 63.7062 182.506 66.2562C182.506 66.2562 183.781 65.0874 184.737 63.7062L185.056 64.0249L186.225 65.1937C186.969 65.9374 189.731 65.2999 190.156 65.2999C190.581 65.2999 191.006 65.5124 191.219 65.7249C192.387 66.8937 194.087 68.6999 195.256 69.7624C195.575 70.0812 195.681 70.3999 195.681 70.8249C195.681 71.2499 195.469 71.5687 195.256 71.8874C193.45 74.1186 189.2 78.4749 186.969 80.1749C186.65 80.3874 186.331 80.5999 185.906 80.5999C185.481 80.5999 185.056 80.3874 184.844 80.1749L180.912 76.2436C180.487 75.8186 180.381 75.1811 180.487 74.6499C180.594 74.3311 181.125 71.8874 180.381 71.2499C179.956 70.8249 179.531 70.3999 179.106 69.8687C177.831 68.5937 176.025 69.1249 174.325 70.3999C174.006 70.6124 173.475 70.6124 173.156 70.2937L173.05 70.1874L168.906 66.0437C168.587 65.7249 168.162 65.7249 167.844 66.0437C167.525 66.3624 167.525 66.7874 167.844 67.1062L171.775 71.0374C170.394 72.0999 167.95 74.1186 164.869 77.3061C162 80.1749 159.769 82.6186 157.75 85.0624C157.219 84.7436 156.794 84.3186 156.263 83.9999C155.838 83.6811 155.306 83.3624 154.775 83.1499L151.269 81.9811H151.162C151.162 81.9811 151.056 81.6624 150.95 81.4499C150.631 81.1311 150.312 80.7061 149.994 80.4936ZM98.3562 85.2749C96.3375 82.9374 94.1063 80.3874 91.2375 77.5186C88.1563 74.4374 85.7125 72.4187 84.3313 71.2499L88.2625 67.3187C88.5812 66.9999 88.5812 66.5749 88.2625 66.2562C87.9437 65.9374 87.5187 65.9374 87.2 66.2562L83.0563 70.3999L82.95 70.5062C82.6312 70.8249 82.2062 70.8249 81.7812 70.6124C80.1875 69.4437 78.275 68.9124 77 70.0812C76.575 70.5062 76.0437 71.0374 75.725 71.4624C74.9812 72.2061 75.6188 74.5436 75.6188 74.8624C75.725 75.3936 75.6188 76.0311 75.0875 76.4561C73.9188 77.6249 72.325 79.3249 71.1562 80.3874C70.8375 80.7061 70.5187 80.8124 70.0937 80.8124C69.6687 80.8124 69.35 80.5999 69.0312 80.3874C66.8 78.5811 62.55 74.3312 60.7438 72.0999C60.5313 71.7812 60.3187 71.4624 60.3187 71.0374C60.3187 70.6124 60.5313 70.1874 60.7438 69.9749C61.9125 68.8062 63.6125 66.9999 64.7812 65.9374C65.1 65.6187 65.4187 65.5124 65.8437 65.5124C66.2687 65.5124 68.925 66.1499 69.775 65.4062L70.9437 64.2374L71.2625 63.9187C72.325 65.4062 73.4938 66.4687 73.4938 66.4687C72.0063 63.9187 71.475 62.0062 71.475 62.0062C71.3687 61.4749 71.1562 60.8374 71.2625 59.9874C71.5812 57.6499 76.6813 52.7624 80.9313 50.8499C92.9375 45.2187 101.119 47.0249 104.837 47.7687C105.05 47.7687 105.156 47.9812 105.262 48.0874C105.369 48.2999 105.262 48.5124 105.156 48.6187C104.944 48.8312 104.625 49.1499 104.306 49.1499C98.9937 49.9999 95.1687 51.1687 92.5125 52.3374C88.6875 53.9312 86.4563 56.9062 88.3688 60.5187C88.5813 60.8374 89.325 61.6874 89.8562 62.3249C90.175 62.7499 90.175 63.2812 89.8562 63.5999C89.5375 63.9187 91.9812 66.9999 96.8687 71.8874C100.481 75.4999 103.35 78.1561 106.113 80.4936C105.9 80.5999 105.794 80.8124 105.581 81.0249L105.262 81.4499L105.05 81.9811L101.438 83.2561C101.013 83.4686 101.013 83.4686 100.694 83.6811C100.056 84.1061 99.525 84.5311 98.8875 84.9561C98.5687 85.0624 98.4625 85.1686 98.3562 85.2749ZM69.8812 70.0812L69.2438 69.4437L64.7812 74.0124C65.2062 74.4374 65.3125 74.6499 65.3125 74.6499L69.8812 70.0812ZM186.119 70.0812L186.756 69.4437L191.219 74.0124C190.794 74.4374 190.687 74.6499 190.687 74.6499L186.119 70.0812ZM68.7125 68.9124L67.225 67.4249C67.0125 67.2124 66.8 67.1062 66.4812 67.1062C66.2687 67.1062 65.95 67.2124 65.7375 67.4249C64.9938 68.1687 63.4 69.7624 62.6562 70.6124C62.2312 71.0374 62.4437 71.5687 62.975 72.0999C63.4 72.6312 63.825 73.1624 64.1438 73.4811L68.7125 68.9124ZM187.287 68.9124L188.775 67.4249C188.987 67.2124 189.2 67.1062 189.519 67.1062C189.731 67.1062 190.05 67.2124 190.263 67.4249C191.006 68.1687 192.6 69.7624 193.344 70.6124C193.769 71.0374 193.556 71.5687 193.025 72.0999C192.6 72.6312 192.175 73.1624 191.856 73.4811L187.287 68.9124ZM75.3 64.0249C75.3 64.0249 72.8562 61.2624 73.9187 59.3499C74.9812 57.3312 78.3812 52.5499 89.75 49.4687C89.75 49.4687 75.6188 56.0562 75.3 64.0249ZM180.7 64.0249C180.7 64.0249 183.144 61.2624 182.081 59.3499C181.019 57.3312 177.619 52.5499 166.25 49.4687C166.25 49.4687 180.381 56.0562 180.7 64.0249Z" fill="#EFB92A"/>
<path fill-rule="evenodd" clip-rule="evenodd" d="M51.1813 136.062H43L78.8063 109.075L88.475 116.406C88.3687 118.531 88.3687 120.55 88.475 122.675L78.8063 115.344L51.1813 136.062ZM176.45 136.062H172.094V131.6H176.45V136.062ZM77.9563 136.062H73.6V131.6H77.9563V136.062ZM84.0125 136.062H79.6562V131.6H84.0125V136.062ZM182.506 136.062H178.15V131.6H182.506V136.062ZM213 136.062H204.819L177.3 115.237L167.631 122.569V116.406L177.3 109.075L213 136.062ZM176.45 130.219H172.094V125.756H176.45V130.219ZM77.9563 130.219H73.6V125.756H77.9563V130.219ZM84.0125 130.219H79.6562V125.756H84.0125V130.219ZM182.506 130.219H178.15V125.756H182.506V130.219Z" fill="#EFB92A"/>
</g>
</g>
</g>
<defs>
<clipPath id="clip0_139_170">
<rect width="512" height="172" fill="white"/>
</clipPath>
</defs>
</svg>
